<svg id="Capa_1" enable-background="new 0 0 511.999 511.999" height="512" viewBox="0 0 511.999 511.999" width="512" xmlns="http://www.w3.org/2000/svg"><g><g><g clip-rule="evenodd" fill-rule="evenodd"><path d="m89.263 355.637h150.501v-50.505l18.303-26.261v-201.393c0-12.95-7.115-23.947-21.171-23.947-11.644 0-21.171 9.531-21.171 21.171v-31.49c0-12.95-7.115-23.947-21.171-23.947-11.644 0-21.171 9.531-21.171 21.171v-8.991c0-12.95-7.116-23.947-21.171-23.947-11.644 0-21.171 9.531-21.171 21.171v14.541c0-12.95-7.116-23.947-21.171-23.947-11.644 0-21.171 9.533-21.171 21.171v177.037l-31.687-52.722c-10.102-17.497-29.3-5.6-41.796 1.626l31.081 111.345 42.966 35.369z" fill="#fbf2e2"/><path d="m74.263 355.637h180.501v60h-180.501z" fill="#c7efbc"/><path d="m89.263 415.637h150.501v88.862h-150.501z" fill="#c7efbc"/><path d="m318.067 187.501 45-45h120.001c8.25 0 15-6.75 15-15v-105.002c0-8.25-6.757-15-15-15h-180.001c-8.245 0-15 6.755-15 15v105.002c0 8.244 6.75 15 15 15h15z" fill="#cfdbfa"/><path d="m74.263 355.637h22.5v60h-22.5z" fill="#8edf78"/><path d="m89.263 415.637h22.5v88.862h-22.5z" fill="#8edf78"/><path d="m117.6 20.56c-13.741-5.031-28.899 4.836-28.899 19.877v200.013h15v-200.013c0-9.09 5.809-16.893 13.899-19.877zm127.025 34.266c-13.741-5.031-28.9 4.836-28.9 19.877v102.548h15v-102.549c.001-9.089 5.81-16.893 13.9-19.876zm-42.341-34.266c-13.741-5.031-28.9 4.836-28.9 19.877v136.814h15v-136.814c0-9.09 5.809-16.893 13.9-19.877zm-42.342-11.765c-13.741-5.031-28.899 4.836-28.899 19.876v156.079h15v-156.079c-.001-9.089 5.808-16.893 13.899-19.876zm-131.519 150.476 32.874 110.949 42.966 35.369v50.048h-15v-42.549l-42.966-35.368-31.079-111.342c3.907-2.259 8.47-4.975 13.205-7.107z" fill="#f7e0ba"/><path d="m318.067 7.5h-15c-8.244 0-15 6.756-15 15v105.002c0 8.244 6.75 15 15 15h7.5c-8.25 0-7.5-6.756-7.5-15v-105.003c0-8.244 6.755-14.999 15-14.999z" fill="#6e91ef"/></g><g><path d="m232.264 393.137h-15v-15h15zm-30 0h-15v-15h15zm273.304-348.138h-15v-15h15z" fill="#fff"/></g></g><g><path d="m236.896 46.031c-4.947 0-9.604 1.259-13.67 3.475v-6.294c0-18.515-11.79-31.446-28.671-31.446-6.121 0-11.8 1.929-16.461 5.209-4.447-10.437-13.876-16.975-25.881-16.975-11.536 0-21.503 6.85-26.048 16.694-4.51-3.162-10.054-4.929-16.294-4.929-15.809 0-28.67 12.862-28.67 28.672v149.999l-17.727-29.494c-3.651-6.295-8.626-10.32-14.789-11.964-12.619-3.37-26.152 4.484-36.034 10.218l-6.221 3.599 33.278 119.215 42.056 34.619v16.509h15v-23.589l-43.878-36.119-28.877-103.455c6.826-3.832 15.298-7.972 20.811-6.504 1.418.379 3.552 1.313 5.7 5.031l30.682 51.052v20.896h15v-200.012c0-7.539 6.132-13.672 13.67-13.672 12.686 0 13.671 12.588 13.671 16.446v141.539h15v-156.08c0-7.538 6.132-13.671 13.67-13.671 12.685 0 13.671 12.588 13.671 16.446v145.805h15v-136.813c0-7.539 6.133-13.672 13.671-13.672 12.685 0 13.671 12.588 13.671 16.446v134.039h15v-102.549c0-7.538 6.132-13.671 13.67-13.671 12.686 0 13.671 12.588 13.671 16.446v199.038l-14.718 21.117h-18.586v15h15v35.505h-165.5v75h15v88.861h105.501v-15h-90.501v-73.861h135.501v73.861h-30v15h45v-88.861h15v-75h-15v-40.649l18.303-26.262v-203.748c.001-18.515-11.789-31.447-28.671-31.447zm-155.133 317.107h165.5v45h-165.5z"/><path d="m340.568 67.501h15v15h-15z"/><path d="m400.568 67.501h15v15h-15z"/><path d="m430.568 67.501h15v15h-15z"/><path d="m370.568 67.501h15v15h-15z"/><path d="m483.069 0h-127.502v15h127.502c4.135 0 7.499 3.364 7.499 7.499v105.002c0 4.136-3.364 7.5-7.499 7.5h-123.109l-34.394 34.394v-34.394h-22.5c-4.136 0-7.5-3.364-7.5-7.5v-105.002c0-4.135 3.364-7.499 7.5-7.499h37.5v-15h-37.5c-12.406 0-22.5 10.093-22.5 22.499v105.002c0 12.406 10.094 22.5 22.5 22.5h7.5v55.606l55.606-55.606h116.896c12.406 0 22.499-10.094 22.499-22.5v-105.002c.001-12.406-10.092-22.499-22.498-22.499z"/></g></g></svg>